<svg width="149" height="80" viewBox="0 0 149 80" fill="none" xmlns="http://www.w3.org/2000/svg">
<path d="M148.999 39.5131C149.153 61.9095 117.927 79.5337 74.768 79.8187C36.6567 80.0706 0.147229 62.5127 0.000451284 40.5006C-0.146327 18.4886 35.5335 0.261224 74.2319 0.00272695C113.16 -0.25577 148.853 17.8987 148.999 39.5131Z" fill="#C69458"/>
<path d="M144.4 38.923C144.541 60.9881 115.236 78.3406 74.7507 78.6256C39.0133 78.8775 4.75021 61.578 4.60982 39.8974C4.46942 18.2168 37.9412 0.2545 74.2465 0.00263051C110.737 -0.249239 144.26 17.6202 144.4 38.923" fill="#E1251B"/>
<path d="M69.9438 38.4044C69.6441 38.4107 69.3447 38.3841 69.0504 38.3249C66.97 37.8742 67.6081 36.0912 67.6081 36.0912C69.1653 32.7042 75.164 35.614 75.164 35.614C75.4065 35.9653 74.111 36.9396 74.111 36.9396C72.8331 37.7141 71.4139 38.2039 69.9438 38.3779V38.4044ZM81.8903 20.0445C81.8903 20.0445 84.0665 19.3353 84.5515 22.1986C84.5515 22.1986 85.0492 25.009 82.5476 26.1755C82.5476 26.1755 81.1117 26.8383 80.5119 25.9369L81.8903 20.0445ZM85.9746 35.097L86.8297 34.0365L81.3925 27.6072C87.9401 26.9841 86.2362 21.4298 86.2362 21.4298C84.577 16.737 80.1034 18.9972 80.1034 18.9972C80.0269 19.1232 77.2955 32.6843 77.2955 32.6843C77.2253 33.778 76.6573 33.4532 76.6573 33.4532C69.529 30.0795 66.2169 33.5261 66.2169 33.5261C66.1686 33.5764 66.1328 33.6381 66.1126 33.706C66.0924 33.7738 66.0884 33.8458 66.1009 33.9156C66.1135 33.9855 66.1423 34.0511 66.1847 34.1068C66.2272 34.1625 66.282 34.2066 66.3446 34.2353C66.465 34.2793 66.5944 34.2895 66.7199 34.2651C66.8453 34.2407 66.9624 34.1824 67.0593 34.0961C70.7671 31.3057 75.5533 34.0961 75.5533 34.0961C76.2298 34.7589 75.1576 34.5535 75.1576 34.5535C67.0338 31.5111 66.2233 36.3497 66.2233 36.3497C66.0446 39.3655 69.5801 39.6969 69.5801 39.6969H72.4008C72.6688 38.8618 72.8539 38.7888 72.8539 38.7888C74.7684 38.1857 77.1806 35.6736 77.1806 35.6736C80.448 37.2975 82.3243 36.701 82.3243 36.701C82.6115 36.624 82.8781 36.4802 83.104 36.2806C83.33 36.081 83.5093 35.8307 83.6285 35.5486C83.7477 35.2664 83.8037 34.9599 83.7923 34.652C83.7808 34.3442 83.7021 34.043 83.5623 33.7713C83.4091 33.4028 83.1836 33.0716 82.9001 32.7988C82.6166 32.526 82.2813 32.3177 81.9158 32.1872C81.7631 32.1736 81.6104 32.2133 81.4819 32.2999C81.4375 32.3152 81.3983 32.3435 81.369 32.3814C81.3397 32.4193 81.3217 32.4652 81.3169 32.5135C81.3122 32.5619 81.3211 32.6106 81.3424 32.6539C81.3637 32.6971 81.3967 32.733 81.4372 32.7572C81.6712 32.8098 81.8862 32.9297 82.0578 33.1031C82.2293 33.2766 82.3504 33.4967 82.4072 33.7382C82.5412 36.131 78.8016 34.633 78.8016 34.633L79.9439 28.3959L85.9746 35.097Z" fill="white"/>
<path d="M70.9593 25.8722L71.6294 23.4993L73.0589 24.2881L70.9593 25.8722ZM68.7768 26.7073C65.8732 26.2168 66.8113 23.9103 66.8113 23.9103C67.7557 21.9218 69.8489 22.863 69.8489 22.863L68.7768 26.7073ZM75.8349 29.5376L78.7896 16.109C78.7896 16.109 76.939 16.4271 76.7666 16.394C76.7666 16.394 75.9817 16.6458 77.0092 17.249L75.3755 24.4074L74.6416 24.1621C74.6416 24.1621 74.8905 21.6898 73.4482 23.4529L71.757 22.472L73.1163 15.8438H70.4935C70.4935 15.8438 69.4022 15.8107 71.1317 17.1032L70.0085 21.7429C70.0085 21.7429 66.8878 20.9077 65.4583 23.9036C65.4583 23.9036 64.2905 27.2177 68.3939 28.0992L67.5196 31.811C67.5196 31.811 69.0385 30.8035 69.8936 30.903L70.6658 27.5358C71.8703 26.7756 72.9953 25.887 74.0225 24.8846C74.0225 24.8846 75.3435 25.3221 75.05 25.6336C75.05 25.6336 73.9906 30.439 73.729 30.5517C74.2379 31.3989 74.9448 32.0989 75.7839 32.5865C75.7839 32.5865 76.5433 32.898 76.3455 31.9237C76.3455 31.9237 75.318 30.598 75.8668 29.5177" fill="white"/>
<path d="M66.0578 32.953C64.9077 31.3363 64.1425 29.4597 63.8248 27.4768C63.5071 25.4939 63.646 23.4611 64.23 21.5446C64.814 19.6282 65.8266 17.8826 67.1849 16.4506C68.5433 15.0187 70.2087 13.9412 72.045 13.3061C73.8813 12.6711 75.8363 12.4967 77.75 12.7972C79.6636 13.0976 81.4816 13.8644 83.0552 15.0347C84.6287 16.205 85.9131 17.7457 86.8033 19.5306C87.6934 21.3156 88.164 23.294 88.1766 25.3042C88.2503 27.7099 87.6062 30.0806 86.3323 32.0914C86.6532 32.5001 87.0031 32.8834 87.3789 33.238C88.7634 31.0593 89.5457 28.5277 89.6405 25.9191C89.7353 23.3104 89.1391 20.7248 87.9167 18.4438C86.6943 16.1628 84.8926 14.274 82.708 12.9832C80.5234 11.6923 78.0396 11.0488 75.5272 11.1229C73.0148 11.197 70.5701 11.9858 68.4595 13.4033C66.3489 14.8209 64.6534 16.8128 63.5576 19.1621C62.4617 21.5115 62.0077 24.1281 62.2449 26.727C62.4821 29.3258 63.4014 31.8072 64.9027 33.9008C65.2713 33.5619 65.6569 33.2433 66.0578 32.9464" fill="white"/>
<path d="M56.908 55.9457L60.9731 38.9445L61.3369 37.6188C61.3369 37.0488 61.8666 35.9154 61.3369 36.1076C60.0992 36.297 58.8843 36.6214 57.7121 37.0753C57.6274 37.0784 57.546 37.1101 57.4802 37.1656C57.4144 37.2212 57.3679 37.2975 57.3477 37.383C57.3274 37.4685 57.3346 37.5585 57.3682 37.6393C57.4017 37.7202 57.4597 37.7875 57.5334 37.8309C57.9036 38.0165 58.2673 38.2021 58.0886 39.1566L54.0044 55.7932C53.9234 56.0368 53.8636 56.2875 53.8257 56.5422C53.647 56.92 53.6534 57.1056 53.1045 57.1122C52.5557 57.3044 52.5621 58.06 53.1045 58.0534H53.4683H56.372H57.2782C57.6419 58.0534 57.6355 57.49 57.4568 57.2978C56.908 56.9266 56.7293 56.7344 56.9016 55.9722" fill="white"/>
<path d="M49.8013 52.5988C49.4504 54.3023 47.8358 56.3835 46.3808 56.3901C45.8383 56.3901 45.1044 56.0256 45.1044 54.5144C45.1044 51.8631 47.7975 50.5375 50.6948 49.2119L49.8013 52.5988ZM52.9092 55.7936C52.7113 55.9962 52.4566 56.1285 52.1817 56.1714C51.8243 56.1714 51.8179 55.608 51.9902 54.8458C51.9902 54.8458 53.9494 47.6675 53.9431 46.3485C53.9431 44.8373 53.0049 42.7693 49.9226 42.7892C46.8403 42.8091 44.6705 44.5258 44.6769 46.2226C44.7495 46.5096 44.9174 46.7607 45.1509 46.9317C45.3844 47.1027 45.6685 47.1825 45.9532 47.1571C47.9507 47.1571 47.5741 44.1281 49.5652 44.1148C51.0202 44.1148 51.5755 45.235 51.2245 46.7661C50.5097 49.0329 41.9838 49.6559 42.0157 55.1242C42.0157 57.1988 43.1197 58.5111 44.9449 58.4979C47.2997 58.4979 48.9207 56.2045 48.9207 56.2045C48.9207 56.2045 48.9207 58.0936 50.3821 58.0803C51.8435 58.0671 52.9347 56.3702 52.9347 56.3702L52.9092 55.7936Z" fill="white"/>
<path d="M28.5188 45.7673C28.2391 45.9461 27.9329 46.076 27.6127 46.1517C27.4083 46.1758 27.2013 46.1552 27.005 46.0912C26.8087 46.0272 26.6275 45.9212 26.4731 45.7801C26.3186 45.639 26.1943 45.4659 26.1081 45.2719C26.0219 45.078 25.9757 44.8674 25.9726 44.6538C25.9726 43.7059 26.6873 42.7647 28.1423 42.7515C28.5125 42.7202 28.8846 42.7816 29.2272 42.9304L28.5188 45.7673ZM41.4289 48.4981C42.3372 47.893 43.131 47.1202 43.771 46.218C44.1284 45.8402 44.1284 45.2702 43.4009 45.469C42.9594 45.7283 42.4594 45.861 41.9522 45.8534L45.1431 33.2003V32.8225C45.2838 32.4857 45.5411 32.216 45.8642 32.0669C46.4066 31.8681 46.4066 31.3047 45.8642 31.3047L41.6842 31.3378C41.3205 31.3378 41.3268 31.9078 41.5055 32.0934C42.0543 32.279 42.4245 32.6568 42.2458 33.598L39.24 45.3033C36.8724 44.382 34.6708 42.1351 32.4882 41.3927L34.4283 33.2534V32.8756C34.6069 32.4977 34.6069 32.3055 35.1494 32.12C35.6918 31.9344 35.6854 31.3577 35.1494 31.3643H30.963C30.6056 31.3643 30.612 31.9277 30.7907 32.12C31.3395 32.3055 31.7033 32.6767 31.3459 33.6312L29.5718 40.9884C26.4895 41.3861 24.5112 42.9105 24.5239 45.363C24.5016 45.8089 24.5644 46.2551 24.7088 46.6758C24.8531 47.0964 25.0761 47.4833 25.3649 47.8141C25.6538 48.1449 26.0028 48.4131 26.3918 48.6033C26.7809 48.7935 27.2023 48.9019 27.6318 48.9223L26.0364 55.9083C25.9612 56.155 25.9057 56.4078 25.8705 56.6639C25.6918 57.0484 25.6918 57.2339 25.1429 57.2406C24.6005 57.4262 24.6069 58.1818 25.1429 58.1751H25.5067H28.4104H29.3229C29.6803 58.1751 29.6803 57.6117 29.5016 57.4195C29.255 57.3139 29.0488 57.1268 28.915 56.8871C28.7812 56.6475 28.7272 56.3687 28.7614 56.0939L31.7735 44.1964C34.1411 45.6877 36.6874 47.7425 38.5189 48.4848L36.7512 55.8553C36.6674 56.0985 36.6055 56.3492 36.5661 56.6043C36.3874 56.9821 36.3874 57.1677 35.845 57.1743C35.3089 57.3665 35.3153 58.1287 35.845 58.1221H36.2151H39.1188H40.025C40.3887 58.1221 40.3887 57.5587 40.1973 57.3665C39.6612 56.9887 39.4634 56.8098 39.6485 56.0409L41.4289 48.4981Z" fill="white"/>
<path d="M67.3961 49.2731C67.2432 50.2991 67.0084 51.31 66.6941 52.2955C66.1517 54.1846 65.2519 55.8813 63.9883 55.8946C62.1695 55.8946 61.9845 54.0255 61.9717 52.1365C61.9717 49.6907 63.548 44.587 66.2729 44.5671C67.3642 44.5671 67.9066 45.3029 67.9194 46.6285C67.828 47.5277 67.6528 48.4157 67.3961 49.2797V49.2731ZM73.2162 37.3159V37.1304C73.3757 36.6465 73.7778 35.7517 73.4459 35.6191H73.2098C71.9764 35.83 70.7634 36.1538 69.585 36.5868C69.2212 36.5868 69.2276 37.1569 69.4127 37.3425C69.9488 37.528 70.1338 37.7136 69.9615 38.4626L69.7828 39.4104C69.4318 41.1139 68.8128 43.0493 68.6405 44.3683C68.3505 43.8367 67.9246 43.3988 67.4099 43.1028C66.8953 42.8069 66.3118 42.6645 65.7241 42.6914C61.8951 42.6914 58.8574 47.8348 58.883 52.3552C58.9149 56.3321 60.5614 58.1879 62.3801 58.1747C64.5499 58.1747 65.9921 56.0802 66.3559 55.6958C66.3559 57.0214 66.0049 58.1482 66.5473 57.956C67.0898 57.5782 69.6169 56.0537 69.9871 55.8615C70.3572 55.6693 70.1594 55.2981 69.7956 55.1059C69.2532 55.1059 68.7107 55.1059 68.883 53.9791L72.8652 38.6349L73.2162 37.3159Z" fill="white"/>
<path d="M115.457 41.0163C115.446 41.6827 115.261 42.3334 114.921 42.8987L115.106 43.2765C115.106 43.2765 117.455 41.3809 117.442 39.114C117.48 38.6636 117.347 38.2156 117.071 37.8653C116.796 37.515 116.4 37.2901 115.968 37.2383C115.488 37.2452 115.03 37.448 114.693 37.8028C114.357 38.1575 114.168 38.6357 114.168 39.1339C114.197 39.5381 114.332 39.9264 114.556 40.2578C114.781 40.5892 115.088 40.8513 115.444 41.0163" fill="white"/>
<path d="M92.6412 52.2981C92.1179 54.0015 90.497 56.0827 89.2206 56.096C88.6782 56.096 87.9443 55.7248 87.9443 54.2136C87.9443 51.5623 90.6437 50.2367 93.3559 48.9111L92.6412 52.2981ZM94.6578 54.545C94.6578 54.545 96.6106 47.3667 96.7829 46.0477C96.7829 44.5431 95.8512 42.4685 92.7624 42.4884C89.6737 42.5083 87.5103 44.225 87.5231 45.9218C87.5767 46.1839 87.7146 46.4192 87.9141 46.5891C88.1136 46.7589 88.3628 46.8532 88.6208 46.8564C90.7969 46.8564 90.2353 43.8273 92.4178 43.8141C93.6942 43.8141 94.2366 44.9342 93.8856 46.4653C93.3496 48.7321 84.8236 49.3552 84.8556 54.8234C84.8556 56.898 85.9724 58.2104 87.6061 58.1971C90.1587 58.1971 91.7605 55.9104 91.7605 55.9104C91.7605 55.9104 91.7605 57.7862 93.0368 57.7795C94.6706 57.7795 95.7554 56.0695 95.7554 56.0695V55.4995C95.5053 55.7368 95.1815 55.8732 94.8429 55.8839C94.6578 55.8839 94.6578 55.3205 94.6514 54.5583" fill="white"/>
<path d="M74.4173 39.5986C74.0599 40.732 74.6088 41.4876 75.6936 41.4809C76.2079 41.4611 76.701 41.263 77.0942 40.9183C77.4875 40.5735 77.7583 40.1019 77.8634 39.5787C77.9574 39.3673 77.9961 39.1339 77.9757 38.902C77.9552 38.6702 77.8764 38.448 77.747 38.2578C77.6176 38.0677 77.4423 37.9163 77.2387 37.8189C77.035 37.7215 76.8103 37.6815 76.5871 37.7029C76.0741 37.7215 75.5821 37.9185 75.1898 38.2622C74.7975 38.606 74.5278 39.0766 74.4237 39.5986" fill="white"/>
<path d="M122.55 42.8545C121.735 42.5209 120.872 42.3348 119.997 42.3043C119.409 42.28 118.822 42.3802 118.273 42.5987C117.723 42.8172 117.222 43.1496 116.8 43.5755C116.378 44.0014 116.044 44.512 115.818 45.0763C115.592 45.6406 115.479 46.2467 115.485 46.8579C115.485 49.1247 117.872 50.4238 119.691 51.7362C120.067 52.0158 120.378 52.3807 120.599 52.8032C120.82 53.2257 120.946 53.6949 120.967 54.1753C120.967 55.1165 120.073 56.4422 118.255 56.4621H117.706C116.066 55.9119 116.053 53.6517 116.053 53.0817C116.053 52.5117 115.319 52.5183 115.147 53.0817C114.968 53.4595 114.802 55.3485 114.617 56.1041C115.115 56.691 115.741 57.1456 116.442 57.4298C117.273 57.673 118.132 57.7935 118.995 57.7877C120.172 57.7984 121.306 57.326 122.149 56.4734C122.993 55.6207 123.479 54.4566 123.5 53.2342C123.5 50.2184 120.948 49.4826 118.925 47.4213C118.656 47.1896 118.435 46.9029 118.277 46.5791C118.119 46.2553 118.027 45.9013 118.006 45.5389C118.006 44.5977 118.721 43.6499 120.176 43.6432C120.672 43.6978 121.159 43.8203 121.624 44.0078C122.722 44.379 122.901 45.5057 122.735 46.4536C122.735 47.017 123.641 47.017 123.634 46.6325C123.82 46.0691 124.171 44.9357 124.528 43.9813C123.944 43.4702 123.263 43.091 122.53 42.8677" fill="white"/>
<path d="M111.652 42.3633C110.012 42.3633 108.385 43.8944 108.027 44.4644C107.842 43.5232 107.294 42.3898 105.839 42.403C104.211 42.403 102.756 43.9342 102.22 44.5042V43.7486C102.399 42.993 102.577 42.2373 101.665 42.4229C100.658 42.8047 99.6308 43.1277 98.5889 43.3907C98.2252 43.5829 98.2316 44.1463 98.5889 44.1463C98.867 44.2203 99.111 44.3938 99.2779 44.6363C99.4448 44.8788 99.524 45.1747 99.5015 45.4719L97.2105 55.487C97.1275 55.7569 97.0048 56.0117 96.8467 56.2426C96.8583 56.319 96.8526 56.3972 96.8299 56.4709C96.8073 56.5447 96.7684 56.6119 96.7163 56.6672C96.6643 56.7226 96.6005 56.7646 96.5301 56.7898C96.4597 56.815 96.3845 56.8229 96.3107 56.8126C95.7683 57.0048 95.7746 57.7538 96.3107 57.7538H96.4894H99.3994H100.306C100.848 57.7538 100.842 57.1838 100.478 56.9982C100.238 56.8453 100.053 56.6141 99.9527 56.3407C99.8523 56.0674 99.8417 55.7672 99.9227 55.487L102.392 45.4851C102.565 45.2535 102.786 45.0645 103.037 44.9316C103.289 44.7986 103.565 44.7251 103.847 44.7163C105.124 44.7163 105.124 45.8364 104.951 46.4064L102.814 55.434C102.732 55.6792 102.674 55.9323 102.641 56.1896C102.499 56.5271 102.243 56.7985 101.92 56.9518C101.824 56.9518 101.731 56.9916 101.663 57.0625C101.595 57.1333 101.556 57.2294 101.556 57.3296C101.556 57.4298 101.595 57.5259 101.663 57.5968C101.731 57.6676 101.824 57.7074 101.92 57.7074H102.284H105.009H106.1C106.464 57.7074 106.458 57.144 106.279 56.9518C105.724 56.5806 105.366 56.395 105.545 55.4539L108.021 45.8232V45.631C108.191 45.3407 108.43 45.1006 108.715 44.9335C109 44.7664 109.321 44.6779 109.648 44.6765C109.841 44.6789 110.031 44.7298 110.201 44.8249C110.371 44.9201 110.516 45.0566 110.624 45.2228C110.732 45.389 110.799 45.5799 110.82 45.7791C110.842 45.9783 110.816 46.18 110.746 46.3667L108.627 55.434C108.546 55.6797 108.486 55.9326 108.449 56.1896C108.313 56.5275 108.057 56.7981 107.734 56.9452C107.637 56.9452 107.545 56.985 107.477 57.0558C107.408 57.1267 107.37 57.2228 107.37 57.323C107.37 57.4232 107.408 57.5193 107.477 57.5901C107.545 57.661 107.637 57.7008 107.734 57.7008H108.098H110.816H111.907C112.271 57.7008 112.265 57.1308 112.086 56.9452C111.544 56.5674 111.167 56.3818 111.346 55.4406L113.643 45.9955C114.001 44.8621 113.809 42.4097 111.633 42.4296" fill="white"/>
<path d="M87.5 44.2258C87.5 43.6624 87.315 42.5356 85.6749 42.5422C84.2262 42.5422 82.969 44.2589 82.4266 45.1935L82.5925 43.8678C82.5925 43.1189 82.7712 42.3633 82.0437 42.5422C80.9762 42.9321 79.8873 43.2552 78.7827 43.5099C78.4253 43.7088 78.4253 44.2721 78.7827 44.2655C79.1464 44.4511 79.8803 44.6367 79.7016 45.5911L77.4042 55.5996C77.3226 55.8453 77.2628 56.0983 77.2255 56.3553C77.0468 56.7264 76.8682 56.9187 76.5108 56.9187C75.962 57.1109 75.9683 57.8665 76.5108 57.8665H76.8682H79.5995H80.678C81.0482 57.8665 81.0418 57.3031 80.8567 57.1109C80.3143 56.7397 79.9505 56.5541 80.1228 55.6129L81.8905 48.4346C82.4266 46.9234 83.1669 45.0344 83.6902 45.0278C84.4177 45.0278 84.239 46.1546 85.3303 46.1479C85.8502 46.1516 86.3542 45.9617 86.751 45.6128C87.1479 45.2638 87.4113 44.7789 87.4936 44.2456" fill="white"/>
<path d="M74.5214 55.6257L76.8188 45.6239L77.3484 43.9205C77.5208 43.1648 77.7058 42.4092 76.9783 42.5948C76.2508 42.7804 73.7109 43.5625 73.3471 43.5625C72.8111 43.7547 72.8111 44.3181 73.1748 44.3181C73.5386 44.5037 74.2597 44.6893 73.9087 45.6438L71.6113 55.6589C71.5334 55.9052 71.4757 56.158 71.439 56.4145C71.2539 56.7857 71.254 56.9779 70.7115 56.9845C70.1691 57.1767 70.1691 57.9323 70.7115 57.9257H71.0625H73.9789H74.8851C75.2425 57.9257 75.2425 57.3491 75.0638 57.1701C74.515 56.7923 74.1449 56.6067 74.5086 55.6589" fill="white"/>
</svg>
