<svg width="80" height="60" fill="none" xmlns="http://www.w3.org/2000/svg"><g clip-path="url(#clip0)"><path d="M58.215 58.491h-9.892v2.968h9.892v-2.968zM44.882 58.491h-9.893v2.968h9.893v-2.968zM31.591 58.491H21.7v2.968h9.892v-2.968zM68.495 55.099h-6.84v7.632h6.84V55.1zM68.495 44.498v10.6h-6.84v-1.695h1.463a.675.675 0 00.688-.679v-1.653a.675.675 0 00-.688-.679h-2.752l-.474-.339v-5.555h8.603zM64.194 38.774l3.612 2.671c.43.467.689 1.103.689 1.696v1.357h-8.603v-1.357c0-.636.258-1.23.689-1.696l3.612-2.671z" fill="#19A2F6"/><path d="M63.806 51.113v1.654a.675.675 0 01-.688.678H16.753a.675.675 0 01-.689-.678v-1.654c0-.382.302-.678.689-.678h46.365c.43 0 .688.296.688.678z" fill="#19A2F6"/><path d="M61.656 62.731V71h-3.441V53.403h3.44v9.328zM59.892 50.095l.474.34H19.548l.345-.297 4.344-3.096h31.398l4.258 3.053zM55.333 26.647c.387 1.102.645 2.417.387 3.858-.3 1.95-1.333 3.35-2.021 4.071v-.042H42.086v-2.417a2.37 2.37 0 00-.13-.764c-.171-.55-.601-1.017-1.16-1.399l-.86-.509-.904.552c-.473.296-.86.72-1.075 1.187a2.388 2.388 0 00-.172.933v2.417H26.172v.042a7.698 7.698 0 01-1.979-4.07c-.215-1.485 0-2.8.43-3.86.646-1.738 1.979-3.18 3.613-4.07 3.097-1.696 6.237-3.01 9.377-4.876v.127h4.73V17.7c3.098 1.865 6.237 3.18 9.377 4.876 1.635.89 2.925 2.29 3.613 4.07z" fill="#19A2F6"/><path d="M26.672 41.878H26.172v-7.302l.002.5 11.61-.042-11.112 6.844zm0 0H53.199m-26.527 0h26.527m0 0v.5H31.333l21.866-.5zm0 0H53.698v-6.844h-.5m0 6.844v-6.844m0 0v-.5H37.786l.002.5h-.001 15.413z" fill="#19A2F6" stroke="#5B5B5B"/><path d="M48.322 61.46V71h-3.44V53.403h3.44V61.459zM34.99 61.46V71h-3.441V53.403h3.44V61.459zM21.699 61.46V71h-3.441V53.403H21.7V61.459z" fill="#19A2F6"/><path d="M19.893 44.498v5.64l-.387.297h-2.753a.675.675 0 00-.688.678v1.654c0 .381.3.678.688.678h1.462v1.696H11.29v-10.6h8.603v-.043z" fill="#19A2F6"/><path d="M15.591 38.774l3.613 2.671c.43.467.689 1.103.689 1.696v1.357H11.29v-1.357c0-.636.259-1.23.689-1.696l3.613-2.671zM18.258 55.099v7.632H11.29V55.1h6.968z" fill="#19A2F6"/><path d="M37.742 17.572c-3.183 1.909-6.366 3.223-9.506 4.962-1.634.89-2.967 2.332-3.613 4.07-.387 1.103-.645 2.417-.387 3.859.387 2.374 1.807 3.901 2.366 4.452M42.172 17.572c3.183 1.909 6.366 3.223 9.505 4.962 1.635.89 2.968 2.332 3.613 4.07.387 1.103.645 2.417.387 3.859-.387 2.374-1.806 3.901-2.365 4.452" stroke="#5B5B5B" stroke-miterlimit="10" stroke-linejoin="round"/><path d="M42.344 17.785h-4.731v-4.453c0-1.272 1.075-2.332 2.365-2.332 1.29 0 2.366 1.06 2.366 2.332v4.453zM42.13 34.746h-4.302v-2.63c0-.339.043-.635.172-.932.172-.467.602-.89 1.075-1.188l.903-.55.86.55c.56.34.99.849 1.162 1.4.086.254.13.509.13.763v2.587zM55.677 47.042H24.28a5.123 5.123 0 01.43-2.968c.387-.848.946-1.4 1.29-1.696h27.957c.344.297.903.848 1.29 1.696.602 1.272.473 2.46.43 2.968zM60.409 50.435h-40.86l4.73-3.393h31.399l4.73 3.393z" stroke="#5B5B5B" stroke-miterlimit="10" stroke-linejoin="round"/><path d="M63.161 53.403H16.753a.675.675 0 01-.689-.679v-1.653c0-.382.302-.679.689-.679H63.16c.387 0 .688.297.688.679v1.653a.675.675 0 01-.688.679z" stroke="#5B5B5B" stroke-miterlimit="10" stroke-linejoin="round"/><path d="M21.699 53.403h-3.441V71h3.44V53.403zM35.032 53.403h-3.44V71h3.44V53.403zM48.366 53.403h-3.441V71h3.44V53.403zM61.699 53.403h-3.44V71h3.44V53.403zM21.699 58.491h9.892M35.032 58.491h9.893M48.366 58.491h9.892" stroke="#5B5B5B" stroke-miterlimit="10" stroke-linejoin="round"/><path d="M26.43 23.72v-2.543M53.527 23.72v-2.543M31.376 40.258v2.12M39.978 40.258v2.12M48.58 40.258v2.12" stroke="#5B5B5B" stroke-miterlimit="10" stroke-linecap="round" stroke-linejoin="round"/><path d="M19.893 71H11.29V43.141c0-.636.259-1.23.689-1.696l3.613-2.671 3.612 2.671c.43.467.689 1.06.689 1.696v7.082M10 44.498h11.613M11.29 55.099h6.882M15.591 38.986v-2.12M15.591 47.89v1.697M59.892 71h8.603V43.141c0-.636-.258-1.23-.689-1.696l-3.612-2.671-3.613 2.671c-.43.467-.689 1.06-.689 1.696v7.082M69.785 44.498H58.172M68.495 55.099h-6.882M64.194 38.986v-2.12M64.194 47.89v1.697" stroke="#5B5B5B" stroke-miterlimit="10" stroke-linejoin="round"/></g><defs><clipPath id="clip0"><path fill="#fff" d="M0 0h80v60H0z"/></clipPath></defs></svg>