<svg width="80" height="60" fill="none" xmlns="http://www.w3.org/2000/svg"><mask id="a" maskUnits="userSpaceOnUse" x="0" y="0" width="80" height="60"><path fill="#fff" stroke="#47A8A5" stroke-width=".7" d="M.35.35h79.3v59.3H.35z"/></mask><g mask="url(#a)"><path d="M47.3 50.19v7.443h1.58a.89.89 0 01.903.899v.983l12.104-.084c0-3.09.028-6.152.028-9.242H47.3zm-15.037 8.342a.89.89 0 01.903-.9h1.608c0-2.471.028-4.97.028-7.443H20.187v9.354l12.076-.084v-.927zm3.243-1.183V28.637h11.665v28.712" fill="#F79C51"/><path d="M19.136 59.852v-9.354h14.615m0 0H19.136l4.035-2.893a.932.932 0 01.536-.168H33.75m12.584 0h10.044a.87.87 0 01.536.168l4.035 2.893H46.334" stroke="#5B5B5B" stroke-width=".7" stroke-miterlimit="10"/><path d="M6.214 72.07V60.301c0-.253.198-.45.452-.45h24.63m17.493.001H73.42c.254 0 .451.196.451.45V72.07m-40.12-13.904V29.6c0-.309.254-.562.565-.562h11.483c.31 0 .564.253.564.562v28.566" stroke="#5B5B5B" stroke-width=".7" stroke-miterlimit="10"/><path d="M37.858 18.617V15.95c0-.168.141-.309.31-.309h6.208c.169 0 .31.14.31.31v2.668" fill="#F79C51"/><path fill-rule="evenodd" clip-rule="evenodd" d="M36.98 18.296V15.99h6.127v2.306H36.98zm-.7 0v-2.347c0-.363.298-.659.66-.659h6.207c.36 0 .66.296.66.66v2.346h.073c.417 0 .773.352.773.771v9.971h-.7v-9.971c0-.009-.004-.028-.024-.047a.075.075 0 00-.05-.024h-7.673c-.01 0-.03.005-.05.024-.02.02-.024.038-.024.047v9.971h-.7v-9.971c0-.42.356-.771.774-.771h.073z" fill="#5B5B5B"/><path d="M37.024 15.668c0-2.219 1.326-4.045 2.991-4.045 1.636 0 2.99 1.798 2.99 4.045M40.014 8v3.623m20.851 48.229v-9.354H46.22" stroke="#5B5B5B" stroke-width=".7" stroke-miterlimit="10"/><path d="M31.12 71.45V58.436a.5.5 0 01.5-.5h16.814a.5.5 0 01.5.5V71.45" stroke="#5B5B5B" stroke-width=".7"/></g></svg>