<svg width="80" height="60" fill="none" xmlns="http://www.w3.org/2000/svg"><mask id="a" maskUnits="userSpaceOnUse" x="0" y="0" width="80" height="60"><rect x=".35" y=".35" width="79.3" height="59.3" rx="4.196" fill="#fff" stroke="#47A8A5" stroke-width=".7"/></mask><g mask="url(#a)"><path d="M39.047 40.965H26.66v3.259h12.387v-3.26zm14.853.053H41.515v3.26h12.387v-3.26z" fill="#4EADDD"/><path d="M41.514 45.295h-2.421v-3.259l1.024-1.175c.094-.107.233-.107.326 0l1.025 1.175v3.26h.046zM26.66 42.036h12.387m14.9 3.259H26.613m14.947-3.259h12.387" stroke="#5B5B5B" stroke-miterlimit="10" stroke-linecap="round"/><path d="M17.952 43.906c-3.585 2.992-7.73 6.091-12.526 8.977-2.189 1.335-4.377 2.51-6.426 3.58m14.389 11.38V47.54M8.546 67.843V50.96m54.062-7.588c3.586 2.992 7.73 6.09 12.527 8.976 2.188 1.336 4.377 2.511 6.426 3.58M67.219 67.309V47.005m4.842 20.304V50.37" stroke="#5B5B5B" stroke-miterlimit="10"/><path d="M26.387 67.683h-1.07v.107h2.141V30.602l-.885-6.786c-.046-.267-.372-.267-.419 0l-.884 6.786-1.77-10.847c.047 0 .14-.053.14-.107v-.373c0-.054-.047-.107-.14-.107h-.745c-.047 0-.14.053-.14.107v.373c0 .054.047.107.14.107h.047l-1.817 10.847-.884-6.786c-.047-.267-.373-.267-.42 0l-.838 6.786v37.134h2.142v-.107h-1.07" fill="#4EADDD"/><path d="M18.977 67.79V36.96l2.887-17.098h-.047c-.047 0-.14-.053-.14-.107v-.374c0-.053.047-.107.14-.107h.745c.047 0 .14.054.14.107v.374c0 .054-.047.107-.14.107L25.45 36.96v30.296" stroke="#5B5B5B" stroke-miterlimit="10"/><path d="M22.236 15v4.274m4.284 48.569V30.71l-.885-6.786c-.046-.267-.372-.267-.419 0l-.885 6.786m1.118-9.085v2.084m-5.401 7l-.885-6.786c-.047-.267-.373-.267-.42 0l-.884 6.786v37.134m1.118-46.218v2.084" stroke="#5B5B5B" stroke-miterlimit="10" stroke-linecap="round"/><path d="M62.429 69.286h-1.071v.107H63.5V32.205l-.838-6.786c-.047-.267-.373-.267-.42 0l-.884 6.786-1.816-10.847c.046 0 .14-.053.14-.107v-.374c0-.053-.047-.107-.14-.107h-.745c-.047 0-.14.054-.14.107v.374c0 .054.047.107.14.107h.046l-1.816 10.847-.838-6.786c-.047-.267-.373-.267-.42 0l-.884 6.786v37.134h2.142v-.107h-1.07" fill="#4EADDD"/><path d="M55.065 69.34V38.562l2.887-17.098h-.047c-.046 0-.14-.053-.14-.107v-.374c0-.053.047-.107.14-.107h.745c.047 0 .14.054.14.107v.374c0 .054-.046.107-.14.107l2.888 17.098v30.296" stroke="#5B5B5B" stroke-miterlimit="10"/><path d="M58.278 16.603v4.22m4.33 48.623V32.312l-.885-6.786c-.046-.267-.372-.267-.419 0l-.884 6.786m1.117-9.137l-.046 2.084m-5.401 7.053l-.839-6.84c-.047-.267-.372-.267-.42 0l-.884 6.786v37.135m1.118-46.218v2.084" stroke="#5B5B5B" stroke-miterlimit="10" stroke-linecap="round"/></g></svg>