<svg width="80" height="60" fill="none" xmlns="http://www.w3.org/2000/svg"><mask id="a" maskUnits="userSpaceOnUse" x="0" y="0" width="80" height="60"><path fill="#fff" stroke="#47A8A5" stroke-width=".7" d="M.35.35h79.3v59.3H.35z"/></mask><g mask="url(#a)"><path d="M56 53.819v120.704h-4.442V50.885c0-1.718-.587-3.311-1.635-4.694l.252-.21v-.041h.042C53.653 47.364 56 50.34 56 53.819z" fill="#47A8A5"/><path d="M50.174 45.94v.041l-.252.21a9.663 9.663 0 00-1.425-1.509c-1.886-1.592-4.484-2.598-7.376-2.598-3.563 0-6.748 1.55-8.634 3.897l-.419-.041c.168-.922.461-1.76.838-2.557 1.51-2.976 4.61-5.03 8.173-5.03 2.263 0 4.359.839 5.951 2.222a9.54 9.54 0 012.222 2.808c.46.754.754 1.634.922 2.556zm-2.348-9.347V37.6a7.47 7.47 0 00-.922-1.09 8.172 8.172 0 00-5.783-2.388c-2.767 0-5.197 1.383-6.706 3.478v-1.006c0-1.592.545-3.06 1.509-4.19 1.215-1.51 3.101-2.515 5.197-2.515a6.68 6.68 0 014.735 1.97c.168.167.336.335.462.544a6.65 6.65 0 011.508 4.191zm-.251 137.678v.21H34.666V53.567c0-2.975 2.892-5.448 6.455-5.448 1.76 0 3.395.629 4.568 1.593 1.173 1.005 1.886 2.346 1.886 3.855v120.704zM44.35 21.715v4.987c-.881-.838-2.013-1.425-3.228-1.425-1.215 0-2.347.587-3.227 1.425v-4.987c0-1.132.838-2.096 2.011-2.515.042-2.305.294-4.61.503-6.915l.336-3.437L41.122-8l.377 16.848.335 3.437c.21 2.305.461 4.61.503 6.915 1.174.42 2.012 1.425 2.012 2.515z" fill="#47A8A5"/><path d="M32.068 45.898l.42.041c-1.132 1.425-1.803 3.102-1.803 4.904v123.638h-4.442V53.777c0-3.437 2.389-6.454 5.825-7.88z" fill="#47A8A5"/><path d="M42.106 26.744v-5.03c0-1.13-.838-2.095-2.012-2.514-.041-2.305-.293-4.61-.502-6.915l-.336-3.437L38.88-8l-.377 16.848-.335 3.437c-.21 2.305-.461 4.61-.503 6.915-1.174.42-2.012 1.383-2.012 2.515v4.987" stroke="#5B5B5B" stroke-width=".7" stroke-miterlimit="10"/><path d="M33.682 32.402v-1.467c0-2.43 2.347-5.658 5.197-5.658s5.197 3.227 5.197 5.658v1.467" stroke="#5B5B5B" stroke-width=".7" stroke-miterlimit="10"/><path d="M32.174 37.6v-1.007c0-3.688 3.017-6.705 6.705-6.705 3.689 0 6.706 3.017 6.706 6.705v1.132" stroke="#5B5B5B" stroke-width=".7" stroke-miterlimit="10"/><path d="M30.706 43.341v-1.048c0-4.484 3.689-8.172 8.173-8.172 4.485 0 8.173 3.688 8.173 8.172v1.048" stroke="#5B5B5B" stroke-width=".7" stroke-miterlimit="10"/><path d="M29.826 45.898c.755-4.317 4.527-7.628 9.053-7.628 4.527 0 8.34 3.353 9.053 7.67" stroke="#5B5B5B" stroke-width=".7" stroke-miterlimit="10"/><path d="M47.973 45.898c3.437 1.425 5.784 4.442 5.784 7.879V174.48H24V53.777c0-3.437 2.389-6.454 5.826-7.921" stroke="#5B5B5B" stroke-width=".7" stroke-miterlimit="10"/><path d="M28.485 174.523V50.885c0-4.82 4.694-8.801 10.394-8.801 5.742 0 10.394 3.94 10.394 8.801v123.638" stroke="#5B5B5B" stroke-width=".7" stroke-miterlimit="10"/><path d="M32.425 174.271V53.567c0-2.975 2.892-5.448 6.455-5.448 3.562 0 6.454 2.43 6.454 5.448v120.704" stroke="#5B5B5B" stroke-width=".7" stroke-miterlimit="10"/></g></svg>