<svg width="80" height="60" fill="none" xmlns="http://www.w3.org/2000/svg"><mask id="a" maskUnits="userSpaceOnUse" x="0" y="0" width="80" height="60"><path fill="#fff" stroke="#47A8A5" stroke-width=".7" d="M.35.35h79.3v59.3H.35z"/></mask><g mask="url(#a)"><path d="M28.92 66.91V54.305h-4.595v12.66l4.595-.057zm29.984-.168V55.144h-4.596V66.77l4.596-.027zM24.325 51.82V20.688a2.305 2.305 0 012.297-2.292 2.305 2.305 0 012.298 2.292v31.074m25.389-.306V20.353a2.305 2.305 0 012.297-2.291 2.305 2.305 0 012.298 2.291v31.075" fill="#F05B46"/><path d="M75.886 55.145H5.942a1.093 1.093 0 01-1.093-1.09v-2.208c0-.615.505-1.09 1.093-1.09h69.944c.616 0 1.093.503 1.093 1.09v2.208c0 .587-.477 1.09-1.093 1.09z" fill="#F05B46"/><path d="M14.769 39.02v12.866m8.491 15.452V57.206m4.568 0v10.132m25.445 0V57.206m4.567 0v10.132m17.346-10.88H5.242a1.093 1.093 0 01-1.093-1.09V53.16c0-.614.504-1.09 1.093-1.09h69.944c.616 0 1.092.504 1.092 1.09v2.208c0 .615-.476 1.09-1.093 1.09zM27.828 33.767c.616.754 4.932 5.868 12.302 6.064 7.874.195 12.582-5.394 13.142-6.064M32.06 37.735v14.152m4.203-12.643v12.544m4.287-11.734v11.901m4.231-12.711v12.544m4.259-14.053v14.152M3 37.623c1.906 1.006 4.26 1.817 7.09 1.873 7.874.195 12.582-5.394 13.142-6.065m-12.666 6.372v12.062m8.463-14.382v14.475m55.344-12.546a16.066 16.066 0 01-3.39.447c-7.875.195-12.582-5.394-13.143-6.064m8.49 5.589v12.544m-4.26-14.081v13.83" stroke="#5B5B5B" stroke-width=".7" stroke-miterlimit="10" stroke-linecap="round"/><path d="M23.26 52.009v-30.72c0-1.234 1.037-2.25 2.298-2.25 1.26 0 2.298 1.016 2.298 2.25v30.72M25.53 19.04V17m45.172 23.32v11.257m-17.429.432V21.302c0-1.241 1.036-2.262 2.297-2.262 1.261 0 2.298 1.02 2.298 2.262v30.68M55.541 19.04V17" stroke="#5B5B5B" stroke-width=".7" stroke-miterlimit="10" stroke-linecap="round"/></g></svg>