<svg width="20" height="20" viewBox="0 0 20 20" fill="none" xmlns="http://www.w3.org/2000/svg">
<path d="M5.83333 8.0083L5.04166 4.52497C4.98811 4.28172 4.98976 4.02956 5.04649 3.78704C5.10322 3.54451 5.21358 3.31778 5.36947 3.12352C5.52536 2.92926 5.7228 2.77241 5.94729 2.6645C6.17177 2.55659 6.41759 2.50037 6.66666 2.49997H13.3333C13.5859 2.49405 13.8365 2.54562 14.0662 2.65079C14.2959 2.75596 14.4987 2.91197 14.6593 3.10704C14.8198 3.3021 14.9339 3.53111 14.9929 3.77676C15.052 4.0224 15.0544 4.27826 15 4.52497L14.1667 8.02497" stroke="#B3B3B3" stroke-width="2.17387" stroke-linecap="round" stroke-linejoin="round"/>
<path d="M7.50006 14.1669H12.5001M14.3167 17.5002H5.68339C5.39874 17.5022 5.11833 17.4312 4.86888 17.2941C4.61942 17.157 4.40925 16.9583 4.25839 16.7169C3.65938 15.7045 3.33888 14.5517 3.32944 13.3754C3.32 12.1992 3.62195 11.0414 4.20463 10.0195C4.78732 8.99772 5.63 8.14825 6.64712 7.55738C7.66424 6.96651 8.8196 6.65527 9.99589 6.65527C11.1722 6.65527 12.3275 6.96651 13.3447 7.55738C14.3618 8.14825 15.2045 8.99772 15.7871 10.0195C16.3698 11.0414 16.6718 12.1992 16.6623 13.3754C16.6529 14.5517 16.3324 15.7045 15.7334 16.7169C15.5833 16.9571 15.3744 17.155 15.1265 17.2921C14.8787 17.4291 14.6 17.5008 14.3167 17.5002V17.5002Z" stroke="#B3B3B3" stroke-width="2.17387" stroke-linecap="round" stroke-linejoin="round"/>
</svg>
