<svg width="88" height="88" fill="none" xmlns="http://www.w3.org/2000/svg"><path d="M44.24 25.973c1.598 3.083.685 6.85-2.17 8.792-1.256.799-2.626 1.256-3.996 1.256l-1.484 1.598c-.229.228-.8.114-.8-.228l-.57-2.055c-1.256-.571-2.284-1.599-3.083-2.969-1.598-3.083-.685-6.85 2.17-8.905 3.31-2.284 7.992-1.142 9.932 2.511z" fill="#C3DDE5"/><path d="M35.676 24.147c2.17 0 4.11 1.141 5.138 3.082 1.37 2.512.57 5.709-1.827 7.307-1.027.685-2.17 1.028-3.31 1.028H35.104l-.342.457-.8.799-.342-1.028-.114-.456-.457-.229a6.632 6.632 0 01-2.512-2.511c-1.37-2.512-.57-5.71 1.827-7.422.913-.685 2.055-1.027 3.311-1.027zm0-1.142c-1.37 0-2.74.342-3.882 1.256-2.854 1.94-3.768 5.823-2.17 8.905.686 1.37 1.828 2.284 3.084 2.969l.57 2.055c.115.228.229.343.457.343.114 0 .229 0 .343-.115l1.484-1.598h.114c1.37 0 2.74-.343 3.882-1.256 2.854-1.94 3.768-5.823 2.17-8.791-1.257-2.398-3.654-3.768-6.052-3.768z" fill="#5B5B5B"/><path d="M61.221 23.194c2.895 1.885 3.95 5.746 2.417 8.896-.638 1.399-1.672 2.429-2.988 3.049L60.04 37.3c-.1.424-.595.48-.834.182l-1.624-1.586c-1.371.125-2.799-.244-4.168-1.151-2.896-1.885-4.105-5.818-2.573-8.968 2.013-3.587 6.822-4.866 10.381-2.584z" fill="#C3DDE5"/><path d="M40.318 43.634c-2.284-1.712-5.595-2.055-8.792-.913a4.753 4.753 0 01-3.083 0c-3.196-1.256-6.622-.914-9.02.913-3.767 2.854-3.196 8.22-2.968 10.39.8 5.937 5.024 12.787 10.276 12.902.685 0 1.37-.115 1.94-.343a4.28 4.28 0 012.398 0c.571.228 1.256.343 1.941.343 5.252-.115 9.477-6.965 10.162-12.788.342-2.283 1.028-7.65-2.854-10.504z" fill="#F05B46"/><path d="M38.034 43.634c-2.283-1.712-5.594-2.055-8.791-.913a4.753 4.753 0 01-3.083 0c-3.197-1.256-6.622-.914-9.02.913-3.768 2.854-3.197 8.22-2.968 10.39.799 5.937 5.023 12.787 10.275 12.902.685 0 1.37-.115 1.941-.343a4.28 4.28 0 012.398 0c.57.228 1.256.343 1.941.343 5.252-.115 9.476-6.965 10.161-12.788.343-2.283 1.028-7.65-2.854-10.504z" stroke="#5B5B5B" stroke-miterlimit="10"/><path d="M27.738 42.835c-.062-.669-.124-2.34.5-4.094.561-1.504 1.31-2.339 1.746-2.757" stroke="#5B5B5B" stroke-miterlimit="10" stroke-linecap="round"/><path d="M27.073 42.492c-1.256.229-2.854-.57-3.996-1.94-1.141-1.37-1.598-3.083-1.256-4.34 1.256-.228 2.855.572 3.996 1.942 1.142 1.484 1.599 3.197 1.256 4.338z" stroke="#5B5B5B" stroke-miterlimit="10"/><path d="M37.235 56.764c-.114.57-.343 1.256-.8 2.055-.799 1.598-1.94 2.626-2.625 3.197" stroke="#5B5B5B" stroke-miterlimit="10" stroke-linecap="round"/><path d="M52.934 24.481c1.698-.634 3.578-.433 5.259.616 2.386 1.56 3.3 4.7 2.094 7.341-.496 1.088-1.346 1.92-2.393 2.57l-.566.21-.058.538-.27 1.003-.79-.736-.395-.369-.495.056c-1.259.083-2.417-.258-3.434-.91-2.387-1.56-3.343-4.812-2.095-7.341.639-1.399 1.672-2.429 3.143-2.978zm-.422-1.132c-1.584.591-3.07 1.79-3.851 3.5-1.532 3.15-.478 7.012 2.573 8.967a7.945 7.945 0 004.168 1.152l1.624 1.586c.197.184.31.142.537.058.113-.042.297-.24.255-.353l.611-2.162c1.16-.691 2.307-1.764 2.988-3.05 1.532-3.15.478-7.01-2.417-8.896-2.19-1.374-4.564-1.52-6.488-.802z" fill="#5B5B5B"/><path d="M60.755 68.332c6.999 0 12.673-5.674 12.673-12.673 0-7-5.674-12.674-12.673-12.674-7 0-12.674 5.674-12.674 12.674 0 6.999 5.674 12.673 12.674 12.673z" fill="#F79C51"/><path d="M58.471 68.332c7 0 12.673-5.674 12.673-12.673 0-7-5.674-12.674-12.673-12.674-7 0-12.673 5.674-12.673 12.674 0 6.999 5.674 12.673 12.673 12.673z" stroke="#5B5B5B" stroke-miterlimit="10" stroke-linecap="round"/><path d="M54.247 39.446c.799.342 2.626 1.37 3.882 3.654.913 1.598 1.027 3.082 1.141 3.881" stroke="#5B5B5B" stroke-miterlimit="10" stroke-linecap="round"/><path d="M58.586 42.985c-.229-1.484.684-3.425 2.283-4.795 1.598-1.37 3.654-1.941 5.024-1.484.228 1.484-.685 3.425-2.284 4.795-1.598 1.37-3.54 1.941-5.023 1.484z" stroke="#5B5B5B" stroke-miterlimit="10"/><path d="M53.333 53.033a1.37 1.37 0 100-2.74 1.37 1.37 0 000 2.74zM49.908 56.458a1.37 1.37 0 100-2.74 1.37 1.37 0 000 2.74zM54.59 57.828a1.37 1.37 0 100-2.74 1.37 1.37 0 000 2.74z" fill="#5B5B5B"/></svg>